<svg id="Layer_1" data-name="Layer 1" xmlns="http://www.w3.org/2000/svg" xmlns:xlink="http://www.w3.org/1999/xlink" viewBox="0 0 300 300"><defs><style>.cls-1,.cls-16,.cls-4{fill:none;}.cls-2{fill:#3d2f82;}.cls-12,.cls-3{fill:#fff;}.cls-11,.cls-12,.cls-13,.cls-16,.cls-17,.cls-4,.cls-6,.cls-7{stroke:#490260;}.Graphic-Style-9,.cls-12,.cls-4{stroke-miterlimit:10;}.Graphic-Style-9,.cls-10,.cls-11,.cls-12,.cls-16,.cls-17,.cls-4,.cls-6,.cls-7{stroke-width:1.81px;}.Graphic-Style-9,.cls-10{stroke:#7d4696;}.Graphic-Style-9{fill:url(#linear-gradient);}.cls-5{fill:#490260;}.cls-10,.cls-6{fill:#f0d4fd;}.cls-10,.cls-11,.cls-13,.cls-16,.cls-17,.cls-6,.cls-7{stroke-linecap:round;stroke-linejoin:round;}.cls-14,.cls-7{fill:#00d9b5;}.cls-8{opacity:0.47;fill:url(#_10_dpi_40_6);}.cls-9{fill:url(#linear-gradient-2);}.cls-11,.cls-15{fill:#7d4696;}.cls-13{stroke-width:1.76px;fill:url(#radial-gradient);}.Graphic-Style-10{fill:url(#radial-gradient-2);}.cls-17{fill:url(#radial-gradient-3);}</style><linearGradient id="linear-gradient" x1="229.22" y1="180.8" x2="229.22" y2="135.51" gradientUnits="userSpaceOnUse"><stop offset="0" stop-color="#00d9b5"/><stop offset="0.1" stop-color="#05dab7"/><stop offset="0.22" stop-color="#15dcbb"/><stop offset="0.36" stop-color="#2fe0c3"/><stop offset="0.51" stop-color="#53e5cd"/><stop offset="0.66" stop-color="#81ecda"/><stop offset="0.82" stop-color="#b9f5eb"/><stop offset="0.99" stop-color="#fafefe"/><stop offset="1" stop-color="#fff"/></linearGradient><pattern id="_10_dpi_40_6" data-name="10 dpi 40% 6" width="28.8" height="28.8" patternTransform="translate(98.76 498.63) scale(0.43)" patternUnits="userSpaceOnUse" viewBox="0 0 28.8 28.8"><rect class="cls-1" width="28.8" height="28.8"/><path class="cls-2" d="M28.8,31.68a2.88,2.88,0,1,0-2.88-2.88A2.88,2.88,0,0,0,28.8,31.68Z"/><path class="cls-2" d="M14.4,31.68a2.88,2.88,0,1,0-2.88-2.88A2.88,2.88,0,0,0,14.4,31.68Z"/><path class="cls-2" d="M28.8,17.28a2.88,2.88,0,1,0-2.88-2.88A2.88,2.88,0,0,0,28.8,17.28Z"/><path class="cls-2" d="M14.4,17.28a2.88,2.88,0,1,0-2.88-2.88A2.88,2.88,0,0,0,14.4,17.28Z"/><path class="cls-2" d="M7.2,24.48A2.88,2.88,0,1,0,4.32,21.6,2.88,2.88,0,0,0,7.2,24.48Z"/><path class="cls-2" d="M21.6,24.48a2.88,2.88,0,1,0-2.88-2.88A2.88,2.88,0,0,0,21.6,24.48Z"/><path class="cls-2" d="M7.2,10.08A2.88,2.88,0,1,0,4.32,7.2,2.88,2.88,0,0,0,7.2,10.08Z"/><path class="cls-2" d="M21.6,10.08A2.88,2.88,0,1,0,18.72,7.2,2.88,2.88,0,0,0,21.6,10.08Z"/><path class="cls-2" d="M0,31.68A2.88,2.88,0,0,0,2.88,28.8,2.88,2.88,0,0,0,0,25.92a2.88,2.88,0,0,0,0,5.76Z"/><path class="cls-2" d="M0,17.28A2.88,2.88,0,0,0,2.88,14.4,2.88,2.88,0,0,0,0,11.52a2.88,2.88,0,0,0,0,5.76Z"/><path class="cls-2" d="M28.8,2.88A2.88,2.88,0,0,0,31.68,0a2.88,2.88,0,0,0-5.76,0A2.88,2.88,0,0,0,28.8,2.88Z"/><path class="cls-2" d="M14.4,2.88A2.88,2.88,0,0,0,17.28,0a2.88,2.88,0,0,0-5.76,0A2.88,2.88,0,0,0,14.4,2.88Z"/><path class="cls-2" d="M0,2.88A2.88,2.88,0,0,0,2.88,0,2.88,2.88,0,0,0,0-2.88,2.88,2.88,0,0,0-2.88,0,2.88,2.88,0,0,0,0,2.88Z"/></pattern><linearGradient id="linear-gradient-2" x1="148.27" y1="171.12" x2="149.36" y2="104.65" gradientUnits="userSpaceOnUse"><stop offset="0.08" stop-color="#490260"/><stop offset="0.22" stop-color="#490260" stop-opacity="0.93"/><stop offset="0.42" stop-color="#490260" stop-opacity="0.73"/><stop offset="0.67" stop-color="#490260" stop-opacity="0.41"/><stop offset="0.91" stop-color="#490260" stop-opacity="0"/></linearGradient><radialGradient id="radial-gradient" cx="157.65" cy="208.58" r="66" gradientTransform="translate(470.51 50.92) rotate(90) scale(1 1.5)" gradientUnits="userSpaceOnUse"><stop offset="0.29" stop-color="#00d9b5"/><stop offset="0.39" stop-color="#05d4b4"/><stop offset="0.51" stop-color="#12c4b1"/><stop offset="0.65" stop-color="#28aaab"/><stop offset="0.79" stop-color="#4687a4"/><stop offset="0.94" stop-color="#6d599a"/><stop offset="1" stop-color="#7d4696"/></radialGradient><radialGradient id="radial-gradient-2" cx="85.05" cy="243.56" r="44.61" gradientTransform="matrix(1, 0, 0, 1, 0, 0)" xlink:href="#radial-gradient"/><radialGradient id="radial-gradient-3" cx="206.98" cy="257.24" r="31.01" gradientTransform="matrix(1, 0, 0, 1, 0, 0)" xlink:href="#radial-gradient"/></defs><title>Onboarding II Gradient 300PX</title><path class="cls-3" d="M35.12,299.5H269.91l1.21-13.41c-14.75,0-14.75-4.13-29.5-4.13s-14.75,4.13-29.5,4.13S197.37,282,182.62,282s-14.75,4.13-29.49,4.13S138.38,282,123.63,282s-14.75,4.13-29.5,4.13S79.37,282,64.62,282s-14.75,4.13-29.5,4.13"/><path class="cls-4" d="M35.12,299.5H269.91l1.21-13.41c-14.75,0-14.75-4.13-29.5-4.13s-14.75,4.13-29.5,4.13S197.37,282,182.62,282s-14.75,4.13-29.49,4.13S138.38,282,123.63,282s-14.75,4.13-29.5,4.13S79.37,282,64.62,282s-14.75,4.13-29.5,4.13"/><path class="Graphic-Style-9" d="M162.75,153.77H295.69s-2.55-25.7-59.11-18.77c0,0,12.15-21.18-16.47-25.92S165.58,132.55,162.75,153.77Z"/><polygon class="cls-5" points="215.5 141.72 76.08 141.72 76.08 38.54 215.5 39.27 215.5 141.72"/><rect class="cls-6" x="79.88" y="39.27" width="139.42" height="102.45"/><rect class="cls-7" x="88.59" y="47.02" width="122.01" height="86.21"/><rect class="cls-8" x="88.59" y="47.02" width="122.01" height="86.21"/><rect class="cls-9" x="88.59" y="47.02" width="122.01" height="86.21"/><polygon class="cls-5" points="76.24 140.26 76.24 154.51 105.43 177.29 105.43 162.94 76.24 140.26"/><rect class="cls-10" x="105.43" y="162.95" width="137.15" height="13.62"/><polygon class="cls-11" points="217.75 141.72 79.15 141.72 105.43 162.94 243.31 162.94 217.75 141.72"/><circle class="cls-6" cx="145.06" cy="32.17" r="6.26"/><polygon class="cls-11" points="172.73 31.23 126.96 31.23 124.15 39.12 175.54 39.12 172.73 31.23"/><rect class="cls-6" x="145.43" y="12" width="8.49" height="19.22" transform="translate(299.35 43.23) rotate(-180)"/><rect class="cls-6" x="145.43" y="12" width="4.25" height="19.22" transform="translate(295.1 43.23) rotate(-180)"/><rect class="cls-6" x="135.76" y="13.2" width="28.17" height="8.23" transform="translate(299.69 34.63) rotate(-180)"/><rect class="cls-12" x="135.76" y="13.2" width="28.17" height="4.11" transform="translate(299.69 30.51) rotate(-180)"/><ellipse class="cls-12" cx="149.67" cy="12.53" rx="108.15" ry="4.79"/><path class="cls-6" d="M153.59,10.88c0-4.12-1.76-6.28-3.92-6.28s-3.91,2.16-3.91,6.28Z"/><path class="Graphic-Style-9" d="M55.37,110.91H193.59S179.66,82.6,132.81,89.2c0,0,6.92-16.29-20-20.62a49.7,49.7,0,0,0-24.74,2.49c-16,5.6-19.85,12.67-34.3,21.64A128.12,128.12,0,0,1-.31,110.91H55.37Z"/><path class="cls-13" d="M147.86,195.71h-6.1a10.18,10.18,0,1,0,0,20.36H147v73.47c0,5.62,4.56,7.28,10.18,7.28s10.19-1.66,10.19-7.28V215.42A19.75,19.75,0,0,0,147.86,195.71Z"/><ellipse class="cls-12" cx="136.49" cy="206.2" rx="5.75" ry="7.7"/><path class="cls-14" d="M136.49,223.56c-9.26,0-16.8-7.79-16.8-17.36s7.54-17.36,16.8-17.36,16.81,7.79,16.81,17.36S145.76,223.56,136.49,223.56Z"/><path class="cls-5" d="M136.49,189.74c8.78,0,15.9,7.37,15.9,16.46s-7.12,16.45-15.9,16.45-15.89-7.36-15.89-16.45,7.11-16.46,15.89-16.46m0-1.81c-9.76,0-17.7,8.2-17.7,18.27s7.94,18.26,17.7,18.26,17.71-8.19,17.71-18.26-7.94-18.27-17.71-18.27Z"/><ellipse class="cls-15" cx="136.15" cy="206.2" rx="11.12" ry="11.51"/><ellipse class="cls-16" cx="136.15" cy="206.2" rx="11.12" ry="11.51"/><path class="cls-2" d="M139.2,217.27a10.61,10.61,0,0,1-3,.44,11.52,11.52,0,0,1,0-23,10.61,10.61,0,0,1,3,.45,11.62,11.62,0,0,0,0,22.14Z"/><path class="cls-16" d="M139.2,217.27a10.61,10.61,0,0,1-3,.44,11.52,11.52,0,0,1,0-23,10.61,10.61,0,0,1,3,.45,11.62,11.62,0,0,0,0,22.14Z"/><path class="cls-3" d="M271.12,274c-14.75,0-14.75-4.12-29.5-4.12S226.87,274,212.12,274s-14.75-4.12-29.5-4.12S167.87,274,153.13,274s-14.75-4.12-29.5-4.12S108.88,274,94.13,274s-14.76-4.12-29.51-4.12S49.87,274,35.12,274v26H272.57Z"/><path class="cls-4" d="M271.12,274c-14.75,0-14.75-4.12-29.5-4.12S226.87,274,212.12,274s-14.75-4.12-29.5-4.12S167.87,274,153.13,274s-14.75-4.12-29.5-4.12S108.88,274,94.13,274s-14.76-4.12-29.51-4.12S49.87,274,35.12,274"/><path class="Graphic-Style-10" d="M77.64,298.43c-4.38,0-9.4-.74-9.4-6.5V234.05A17.37,17.37,0,0,1,85.59,216.7h4.88a9.4,9.4,0,0,1,0,18.79H87v56.44C87,297.69,82,298.43,77.64,298.43Z"/><path class="cls-5" d="M90.47,217.61a8.49,8.49,0,0,1,0,17H86.12v57.35c0,4.69-3.8,5.59-8.48,5.59s-8.49-.9-8.49-5.59V234.05a16.45,16.45,0,0,1,16.44-16.44h4.88m-4.89,17h0m4.89-18.78H85.59a18.27,18.27,0,0,0-18.25,18.25v57.88a6.47,6.47,0,0,0,3.45,6.16c1.63.86,3.74,1.24,6.85,1.24s5.21-.38,6.84-1.24a6.47,6.47,0,0,0,3.45-6.16V236.39h2.54a10.3,10.3,0,0,0,0-20.59Z"/><circle class="cls-12" cx="90.98" cy="226.36" r="6.42"/><circle class="cls-14" cx="90.98" cy="226.36" r="16.23"/><path class="cls-5" d="M91,211a15.32,15.32,0,1,1-15.33,15.32A15.32,15.32,0,0,1,91,211m0-1.81a17.13,17.13,0,1,0,17.13,17.13A17.15,17.15,0,0,0,91,209.23Z"/><circle class="cls-15" cx="91.3" cy="226.36" r="10.72"/><circle class="cls-16" cx="91.3" cy="226.36" r="10.72"/><path class="cls-2" d="M88.59,236.64a10.61,10.61,0,0,0,3,.44,10.72,10.72,0,0,0,0-21.44,11,11,0,0,0-3,.44,10.72,10.72,0,0,1,0,20.56Z"/><path class="cls-16" d="M88.59,236.64a10.61,10.61,0,0,0,3,.44,10.72,10.72,0,0,0,0-21.44,11,11,0,0,0-3,.44,10.72,10.72,0,0,1,0,20.56Z"/><path class="cls-17" d="M196.67,291.25V244.5a19.74,19.74,0,0,1,19.72-19.71h5.85a10.18,10.18,0,1,1,0,20.35H217v46.11c0,5.62-4.55,7.28-10.18,7.28S196.67,296.87,196.67,291.25Zm19.71-46.11h0Z"/><ellipse class="cls-12" cx="227.5" cy="235.28" rx="5.75" ry="7.7"/><ellipse class="cls-12" cx="225.32" cy="235.28" rx="5.75" ry="7.7"/><path class="cls-14" d="M225.32,252.64c-9.26,0-16.8-7.78-16.8-17.35s7.54-17.36,16.8-17.36,16.8,7.78,16.8,17.36S234.59,252.64,225.32,252.64Z"/><path class="cls-5" d="M225.32,218.83c8.78,0,15.9,7.37,15.9,16.45s-7.12,16.46-15.9,16.46-15.89-7.37-15.89-16.46,7.11-16.45,15.89-16.45m0-1.81c-9.76,0-17.71,8.19-17.71,18.26s7.95,18.27,17.71,18.27S243,245.36,243,235.28,235.09,217,225.32,217Z"/><ellipse class="cls-15" cx="225.71" cy="235.28" rx="11.12" ry="11.51"/><ellipse class="cls-16" cx="225.71" cy="235.28" rx="11.12" ry="11.51"/><path class="cls-2" d="M236.83,235.29a11.33,11.33,0,0,1-11.12,11.51,10.36,10.36,0,0,1-3.07-.45,11.63,11.63,0,0,0,0-22.13,10.36,10.36,0,0,1,3.07-.45A11.33,11.33,0,0,1,236.83,235.29Z"/><path class="cls-16" d="M236.83,235.29a11.33,11.33,0,0,1-11.12,11.51,10.36,10.36,0,0,1-3.07-.45,11.63,11.63,0,0,0,0-22.13,10.36,10.36,0,0,1,3.07-.45A11.33,11.33,0,0,1,236.83,235.29Z"/><path class="cls-3" d="M27.84,299.45H277.19l1.2-13.36c-14.75,0-22-4.13-36.77-4.13s-14.75,4.13-29.5,4.13S197.37,282,182.62,282s-14.75,4.13-29.49,4.13S138.38,282,123.63,282s-14.75,4.13-29.5,4.13S79.37,282,64.62,282s-22,4.13-36.78,4.13"/><path class="cls-4" d="M278.39,286.09c-14.75,0-22-4.13-36.77-4.13s-14.75,4.13-29.5,4.13S197.37,282,182.62,282s-14.75,4.13-29.49,4.13S138.38,282,123.63,282s-14.75,4.13-29.5,4.13S79.37,282,64.62,282s-22,4.13-36.78,4.13"/></svg>