<svg id="Layer_1" data-name="Layer 1" xmlns="http://www.w3.org/2000/svg" xmlns:xlink="http://www.w3.org/1999/xlink" viewBox="0 0 300 314.86"><defs><style>.cls-1{fill:url(#linear-gradient);}.cls-14,.cls-2,.cls-8{fill:#f0d4fd;}.cls-11,.cls-12,.cls-14,.cls-15,.cls-18,.cls-19,.cls-2,.cls-24,.cls-31,.cls-32,.cls-6{stroke:#490260;}.cls-10,.cls-11,.cls-12,.cls-15,.cls-2,.cls-28,.cls-6{stroke-miterlimit:10;}.cls-10,.cls-11,.cls-12,.cls-14,.cls-15,.cls-18,.cls-19,.cls-2,.cls-24,.cls-28,.cls-31,.cls-32,.cls-6{stroke-width:1.76px;}.cls-3,.cls-32,.cls-6{fill:#00d9b5;}.cls-15,.cls-31,.cls-4{fill:none;}.cls-11,.cls-24,.cls-28,.cls-5{fill:#7e4696;}.cls-7{fill:#009980;}.Graphic-Style-8{fill:url(#linear-gradient-2);}.cls-9{clip-path:url(#clip-path);}.cls-10,.cls-12,.cls-19,.cls-27{fill:#fff;}.cls-10{stroke:#65318e;}.cls-13{fill:url(#linear-gradient-3);}.cls-14,.cls-18,.cls-19,.cls-24,.cls-31,.cls-32{stroke-linecap:round;stroke-linejoin:round;}.cls-16{clip-path:url(#clip-path-2);}.cls-17,.cls-26,.cls-33{opacity:0.52;}.cls-17{fill:url(#_10_dpi_40_7);}.cls-18,.cls-22{fill:#490260;}.cls-20{clip-path:url(#clip-path-3);}.cls-21{fill:url(#linear-gradient-4);}.cls-23{clip-path:url(#clip-path-4);}.cls-25{clip-path:url(#clip-path-5);}.cls-26{fill:url(#_10_dpi_40_7-3);}.cls-28{stroke:#7e4696;}.cls-29{mask:url(#mask);}.cls-30{fill:#7d4696;}.cls-33{fill:url(#_10_dpi_40_7-5);}.cls-34{clip-path:url(#clip-path-6);}.cls-35{filter:url(#luminosity-invert);}</style><linearGradient id="linear-gradient" x1="-13579.58" y1="-1708.96" x2="-13577.66" y2="-1826.04" gradientTransform="translate(25752.36 1171.03) scale(1.89 0.58)" gradientUnits="userSpaceOnUse"><stop offset="0.08"/><stop offset="0.21" stop-color="#373839"/><stop offset="0.33" stop-color="#6e7072"/><stop offset="0.85" stop-color="#fff"/></linearGradient><linearGradient id="linear-gradient-2" x1="200.1" y1="263.3" x2="201.25" y2="193.63" gradientTransform="translate(0 20)" gradientUnits="userSpaceOnUse"><stop offset="0.08" stop-color="#00d9b5"/><stop offset="0.3" stop-color="#00d9b5" stop-opacity="0.73"/><stop offset="0.8" stop-color="#00d9b5" stop-opacity="0.07"/><stop offset="0.85" stop-color="#00d9b5" stop-opacity="0"/></linearGradient><clipPath id="clip-path"><rect class="cls-2" x="144.17" y="66.43" width="142.43" height="167.06"/></clipPath><linearGradient id="linear-gradient-3" x1="191.87" y1="79.31" x2="191.87" y2="172.51" gradientTransform="matrix(1, 0, 0, 1, 0, 0)" xlink:href="#linear-gradient-2"/><clipPath id="clip-path-2"><rect class="cls-3" x="207.6" y="17.24" width="91.12" height="108.4"/></clipPath><pattern id="_10_dpi_40_7" data-name="10 dpi 40% 7" width="28.8" height="28.8" patternTransform="translate(37.03 61.94) scale(0.43)" patternUnits="userSpaceOnUse" viewBox="0 0 28.8 28.8"><rect class="cls-4" width="28.8" height="28.8"/><path class="cls-7" d="M28.8,31.68a2.88,2.88,0,1,0-2.88-2.88A2.88,2.88,0,0,0,28.8,31.68Z"/><path class="cls-7" d="M14.4,31.68a2.88,2.88,0,1,0-2.88-2.88A2.88,2.88,0,0,0,14.4,31.68Z"/><path class="cls-7" d="M28.8,17.28a2.88,2.88,0,1,0-2.88-2.88A2.88,2.88,0,0,0,28.8,17.28Z"/><path class="cls-7" d="M14.4,17.28a2.88,2.88,0,1,0-2.88-2.88A2.88,2.88,0,0,0,14.4,17.28Z"/><path class="cls-7" d="M7.2,24.48A2.88,2.88,0,1,0,4.32,21.6,2.88,2.88,0,0,0,7.2,24.48Z"/><path class="cls-7" d="M21.6,24.48a2.88,2.88,0,1,0-2.88-2.88A2.88,2.88,0,0,0,21.6,24.48Z"/><path class="cls-7" d="M7.2,10.08A2.88,2.88,0,1,0,4.32,7.2,2.88,2.88,0,0,0,7.2,10.08Z"/><path class="cls-7" d="M21.6,10.08A2.88,2.88,0,1,0,18.72,7.2,2.88,2.88,0,0,0,21.6,10.08Z"/><path class="cls-7" d="M0,31.68A2.88,2.88,0,0,0,2.88,28.8,2.88,2.88,0,0,0,0,25.92a2.88,2.88,0,0,0,0,5.76Z"/><path class="cls-7" d="M0,17.28A2.88,2.88,0,0,0,2.88,14.4,2.88,2.88,0,0,0,0,11.52a2.88,2.88,0,0,0,0,5.76Z"/><path class="cls-7" d="M28.8,2.88A2.88,2.88,0,0,0,31.68,0a2.88,2.88,0,0,0-5.76,0A2.88,2.88,0,0,0,28.8,2.88Z"/><path class="cls-7" d="M14.4,2.88A2.88,2.88,0,0,0,17.28,0a2.88,2.88,0,0,0-5.76,0A2.88,2.88,0,0,0,14.4,2.88Z"/><path class="cls-7" d="M0,2.88A2.88,2.88,0,0,0,2.88,0,2.88,2.88,0,0,0,0-2.88,2.88,2.88,0,0,0-2.88,0,2.88,2.88,0,0,0,0,2.88Z"/></pattern><clipPath id="clip-path-3"><rect class="cls-4" x="208.15" y="16.33" width="91.85" height="109.13"/></clipPath><linearGradient id="linear-gradient-4" x1="220.65" y1="2.31" x2="220.65" y2="117.17" gradientUnits="userSpaceOnUse"><stop offset="0.08" stop-color="#7e4696"/><stop offset="0.39" stop-color="#7e4696" stop-opacity="0.61"/><stop offset="0.85" stop-color="#7e4696" stop-opacity="0"/></linearGradient><clipPath id="clip-path-4"><rect class="cls-5" x="41.32" y="115.78" width="121.52" height="161.6"/></clipPath><clipPath id="clip-path-5"><rect class="cls-6" x="41.32" y="114.25" width="121.52" height="161.6"/></clipPath><pattern id="_10_dpi_40_7-3" data-name="10 dpi 40% 7" width="28.8" height="28.8" patternTransform="translate(120.22 155.03) scale(0.45)" patternUnits="userSpaceOnUse" viewBox="0 0 28.8 28.8"><rect class="cls-4" width="28.8" height="28.8"/><path class="cls-7" d="M28.8,31.68a2.88,2.88,0,1,0-2.88-2.88A2.88,2.88,0,0,0,28.8,31.68Z"/><path class="cls-7" d="M14.4,31.68a2.88,2.88,0,1,0-2.88-2.88A2.88,2.88,0,0,0,14.4,31.68Z"/><path class="cls-7" d="M28.8,17.28a2.88,2.88,0,1,0-2.88-2.88A2.88,2.88,0,0,0,28.8,17.28Z"/><path class="cls-7" d="M14.4,17.28a2.88,2.88,0,1,0-2.88-2.88A2.88,2.88,0,0,0,14.4,17.28Z"/><path class="cls-7" d="M7.2,24.48A2.88,2.88,0,1,0,4.32,21.6,2.88,2.88,0,0,0,7.2,24.48Z"/><path class="cls-7" d="M21.6,24.48a2.88,2.88,0,1,0-2.88-2.88A2.88,2.88,0,0,0,21.6,24.48Z"/><path class="cls-7" d="M7.2,10.08A2.88,2.88,0,1,0,4.32,7.2,2.88,2.88,0,0,0,7.2,10.08Z"/><path class="cls-7" d="M21.6,10.08A2.88,2.88,0,1,0,18.72,7.2,2.88,2.88,0,0,0,21.6,10.08Z"/><path class="cls-7" d="M0,31.68A2.88,2.88,0,0,0,2.88,28.8,2.88,2.88,0,0,0,0,25.92a2.88,2.88,0,0,0,0,5.76Z"/><path class="cls-7" d="M0,17.28A2.88,2.88,0,0,0,2.88,14.4,2.88,2.88,0,0,0,0,11.52a2.88,2.88,0,0,0,0,5.76Z"/><path class="cls-7" d="M28.8,2.88A2.88,2.88,0,0,0,31.68,0a2.88,2.88,0,0,0-5.76,0A2.88,2.88,0,0,0,28.8,2.88Z"/><path class="cls-7" d="M14.4,2.88A2.88,2.88,0,0,0,17.28,0a2.88,2.88,0,0,0-5.76,0A2.88,2.88,0,0,0,14.4,2.88Z"/><path class="cls-7" d="M0,2.88A2.88,2.88,0,0,0,2.88,0,2.88,2.88,0,0,0,0-2.88,2.88,2.88,0,0,0-2.88,0,2.88,2.88,0,0,0,0,2.88Z"/></pattern><filter id="luminosity-invert" filterUnits="userSpaceOnUse" color-interpolation-filters="sRGB"><feColorMatrix values="-1 0 0 0 1 0 -1 0 0 1 0 0 -1 0 1 0 0 0 1 0"/></filter><mask id="mask" x="-90.76" y="88.19" width="331.4" height="164.09" maskUnits="userSpaceOnUse"><g class="cls-35"><rect class="cls-1" x="-89.66" y="92.46" width="329.19" height="88.92" transform="translate(146.29 275.76) rotate(-178.51)"/></g></mask><pattern id="_10_dpi_40_7-5" data-name="10 dpi 40% 7" width="28.8" height="28.8" patternTransform="translate(34.23 12.88) scale(0.43)" patternUnits="userSpaceOnUse" viewBox="0 0 28.8 28.8"><rect class="cls-4" width="28.8" height="28.8"/><path class="cls-7" d="M28.8,31.68a2.88,2.88,0,1,0-2.88-2.88A2.88,2.88,0,0,0,28.8,31.68Z"/><path class="cls-7" d="M14.4,31.68a2.88,2.88,0,1,0-2.88-2.88A2.88,2.88,0,0,0,14.4,31.68Z"/><path class="cls-7" d="M28.8,17.28a2.88,2.88,0,1,0-2.88-2.88A2.88,2.88,0,0,0,28.8,17.28Z"/><path class="cls-7" d="M14.4,17.28a2.88,2.88,0,1,0-2.88-2.88A2.88,2.88,0,0,0,14.4,17.28Z"/><path class="cls-7" d="M7.2,24.48A2.88,2.88,0,1,0,4.32,21.6,2.88,2.88,0,0,0,7.2,24.48Z"/><path class="cls-7" d="M21.6,24.48a2.88,2.88,0,1,0-2.88-2.88A2.88,2.88,0,0,0,21.6,24.48Z"/><path class="cls-7" d="M7.2,10.08A2.88,2.88,0,1,0,4.32,7.2,2.88,2.88,0,0,0,7.2,10.08Z"/><path class="cls-7" d="M21.6,10.08A2.88,2.88,0,1,0,18.72,7.2,2.88,2.88,0,0,0,21.6,10.08Z"/><path class="cls-7" d="M0,31.68A2.88,2.88,0,0,0,2.88,28.8,2.88,2.88,0,0,0,0,25.92a2.88,2.88,0,0,0,0,5.76Z"/><path class="cls-7" d="M0,17.28A2.88,2.88,0,0,0,2.88,14.4,2.88,2.88,0,0,0,0,11.52a2.88,2.88,0,0,0,0,5.76Z"/><path class="cls-7" d="M28.8,2.88A2.88,2.88,0,0,0,31.68,0a2.88,2.88,0,0,0-5.76,0A2.88,2.88,0,0,0,28.8,2.88Z"/><path class="cls-7" d="M14.4,2.88A2.88,2.88,0,0,0,17.28,0a2.88,2.88,0,0,0-5.76,0A2.88,2.88,0,0,0,14.4,2.88Z"/><path class="cls-7" d="M0,2.88A2.88,2.88,0,0,0,2.88,0,2.88,2.88,0,0,0,0-2.88,2.88,2.88,0,0,0-2.88,0,2.88,2.88,0,0,0,0,2.88Z"/></pattern><clipPath id="clip-path-6"><rect class="cls-4" x="13.15" y="48.83" width="94.91" height="112.48"/></clipPath></defs><title>Onboarding II Gradient 300PX</title><rect class="Graphic-Style-8" x="122.65" y="205.05" width="156" height="89.89" transform="translate(401.3 499.98) rotate(180)"/><rect class="cls-8" x="144.17" y="66.43" width="142.43" height="167.06"/><g class="cls-9"><polygon class="cls-10" points="343.98 247.42 142.43 247.42 142.43 179.69 312.52 179.69 343.98 247.42"/><rect class="cls-11" x="137.89" y="101.07" width="112.57" height="90.07"/><rect class="cls-12" x="142.94" y="113.35" width="97.86" height="66.58"/><rect class="cls-13" x="142.94" y="113.35" width="97.86" height="66.58"/><polygon class="cls-11" points="251.77 191.14 137.89 191.14 157.68 207.58 271.55 207.58 251.77 191.14"/><rect class="cls-14" x="157.68" y="207.58" width="113.87" height="8.29"/><polygon class="cls-12" points="157.68 207.58 157.68 215.87 137.89 199.36 137.89 191.15 157.68 207.58"/></g><rect class="cls-15" x="144.17" y="66.43" width="142.43" height="167.06"/><rect class="cls-3" x="207.6" y="17.24" width="91.12" height="108.4"/><g class="cls-16"><rect class="cls-17" x="207.6" y="17.24" width="91.12" height="108.4"/><polygon class="cls-12" points="264.46 155.83 163.47 155.83 182.28 171.46 283.27 171.46 264.46 155.83"/><rect class="cls-12" x="182.29" y="171.46" width="100.99" height="7.88"/><polygon class="cls-12" points="182.29 171.46 182.29 179.34 163.47 163.64 163.47 155.83 182.29 171.46"/></g><polygon class="cls-18" points="193.84 138.18 207.6 125.69 207.6 17.24 193.84 34.83 193.84 138.18"/><polygon class="cls-19" points="195.26 138.54 208.1 125.87 299.04 125.87 274.88 138.54 195.26 138.54"/><g class="cls-20"><rect class="cls-12" x="165.17" y="48.65" width="116.64" height="90.24"/><rect class="cls-2" x="170.51" y="59.54" width="100.27" height="70.73"/><rect class="cls-21" x="170.51" y="59.54" width="100.27" height="70.73"/><rect class="cls-22" x="267.94" y="59.54" width="2.84" height="70.73" transform="translate(538.72 189.8) rotate(-180)"/><polygon class="cls-14" points="169.47 138.89 281.81 138.89 260.88 156.28 148.54 156.28 169.47 138.89"/><rect class="cls-14" x="148.54" y="156.28" width="112.33" height="8.77"/><polygon class="cls-14" points="260.88 156.28 260.88 165.04 281.81 147.58 281.81 138.89 260.88 156.28"/></g><rect class="cls-15" x="207.6" y="17.24" width="91.12" height="108.4"/><rect class="cls-5" x="41.32" y="115.78" width="121.52" height="161.6"/><g class="cls-23"><rect class="cls-24" x="105.09" y="149.93" width="110.27" height="83.93"/><rect class="cls-12" x="112.45" y="158.85" width="97.86" height="66.87"/><polygon class="cls-24" points="211.3 233.87 105.1 233.87 124.88 250.3 231.08 250.3 211.3 233.87"/><rect class="cls-14" x="124.88" y="250.3" width="106.2" height="8.29"/><polygon class="cls-14" points="124.88 250.3 124.88 258.59 105.09 242.08 105.09 233.87 124.88 250.3"/></g><rect class="cls-3" x="41.32" y="114.25" width="121.52" height="161.6"/><g class="cls-25"><rect class="cls-26" x="33.64" y="236.59" width="129.19" height="39.26"/><polygon class="cls-24" points="201.63 250.08 33.65 250.08 33.65 206.59 151.14 206.59 201.63 250.08"/><rect class="cls-27" x="105.09" y="148.4" width="110.27" height="83.93"/><rect class="cls-15" x="105.09" y="148.4" width="110.27" height="83.93"/><rect class="cls-2" x="115.52" y="157.31" width="94.79" height="66.87"/><rect class="cls-28" x="115.52" y="157.31" width="2.69" height="66.87"/><polygon class="cls-14" points="211.3 232.33 105.1 232.33 124.88 248.77 231.08 248.77 211.3 232.33"/><rect class="cls-14" x="124.88" y="248.77" width="106.2" height="8.29"/><polygon class="cls-14" points="124.88 248.77 124.88 257.06 105.09 240.55 105.09 232.33 124.88 248.77"/><g class="cls-29"><path class="cls-27" d="M41.57,230.67,41.29,115l140-1.22c8.88.62,2.75,66.38,2.73,75.26-.06,27.16,13.08,22.73,12.31,45.46-1.38,40.88-114.47-1.34-114.47-1.34Z"/></g></g><rect class="cls-15" x="41.32" y="114.25" width="121.52" height="161.6"/><polygon class="cls-30" points="43.24 277.38 30.7 292.92 30.7 147.12 43.24 131.58 43.24 277.38"/><polygon class="cls-31" points="43.24 277.38 30.7 292.92 30.7 147.12 43.24 131.58 43.24 277.38"/><polygon class="cls-32" points="30.7 292.92 150.31 292.92 163.03 276.25 43.24 276.25 30.7 292.92"/><polygon class="cls-33" points="30.7 292.92 149.6 292.92 162.32 276.95 43.24 276.95 30.7 292.92"/><polygon class="cls-18" points="85.4 175.81 0.21 175.03 13.19 161.4 107.93 161.4 85.4 175.81"/><rect class="cls-27" x="13.15" y="48.83" width="87.64" height="112.48"/><g class="cls-34"><rect class="cls-11" x="43.62" y="81.34" width="111.68" height="86.74"/><rect class="cls-12" x="55.67" y="93.42" width="92.66" height="73.49"/><polygon class="cls-11" points="158.72 168.81 43.63 168.81 62.36 184.38 177.45 184.38 158.72 168.81"/><rect class="cls-14" x="63.81" y="184.38" width="113.64" height="7.85"/><polygon class="cls-19" points="64.54 184.38 64.54 192.22 45.8 176.59 45.8 168.81 64.54 184.38"/></g><rect class="cls-15" x="13.15" y="48.83" width="94.91" height="112.48"/><rect class="cls-22" x="55.67" y="93.42" width="4.93" height="67.34"/><polygon class="cls-22" points="43.62 80.57 40.55 82.92 40.55 161.84 43.62 161.84 43.62 80.57"/><polygon class="cls-31" points="43.62 81.27 40.55 83.62 40.55 161.84 43.62 161.84 43.62 81.27"/><polygon class="cls-32" points="13.15 160.41 0 174.56 0 62.94 13.15 48.78 13.15 160.41"/></svg>