<svg id="Layer_1" data-name="Layer 1" xmlns="http://www.w3.org/2000/svg" xmlns:xlink="http://www.w3.org/1999/xlink" viewBox="0 0 300 300"><defs><style>.cls-1{fill:#00d9b5;}.cls-11,.cls-2{fill:none;}.cls-2{stroke:#7d4696;}.cls-2,.cls-6{stroke-miterlimit:10;}.cls-11,.cls-2,.cls-3,.cls-4,.cls-5,.cls-6{stroke-width:1.76px;}.cls-3,.cls-7{fill:#f0d4fd;}.cls-3,.cls-4,.cls-5,.cls-6{stroke:#65318e;}.cls-11,.cls-3,.cls-4,.cls-5{stroke-linecap:round;stroke-linejoin:round;}.cls-4,.cls-8{fill:#65318e;}.cls-5,.cls-6{fill:#fff;}.cls-9{fill:#490260;}.cls-10{fill:url(#linear-gradient);}.cls-11{stroke:#490260;}</style><linearGradient id="linear-gradient" x1="140.48" y1="243.84" x2="142.2" y2="139.11" gradientUnits="userSpaceOnUse"><stop offset="0.08" stop-color="#7d4696"/><stop offset="0.39" stop-color="#7d4696" stop-opacity="0.61"/><stop offset="0.85" stop-color="#7d4696" stop-opacity="0"/></linearGradient></defs><title>Onboarding II Gradient 300PX</title><circle class="cls-1" cx="145.12" cy="149" r="87.32"/><circle class="cls-2" cx="145.12" cy="153.68" r="122.63"/><circle class="cls-2" cx="145.12" cy="153.68" r="138.53"/><ellipse class="cls-3" cx="47.28" cy="67.74" rx="23.7" ry="22"/><ellipse class="cls-4" cx="47.28" cy="67.74" rx="17.5" ry="16.25"/><ellipse class="cls-5" cx="53.64" cy="61.41" rx="8.75" ry="8.12"/><path class="cls-6" d="M298.54,237.25h0a4.76,4.76,0,0,0,.93-6.84l-17.23-21.49-5.41,3.89L291.76,236A4.75,4.75,0,0,0,298.54,237.25Z"/><circle class="cls-6" cx="266.06" cy="192.52" r="24.57"/><path class="cls-3" d="M277.49,208.38a19.56,19.56,0,1,1,4.44-27.29A19.58,19.58,0,0,1,277.49,208.38Z"/><path class="cls-4" d="M264.07,173.06a119.88,119.88,0,0,1-8.66,35.86,19.23,19.23,0,0,1-5.21-5c-.23-.31-.44-.63-.64-.95a19.54,19.54,0,0,1,5.08-26.34c.5-.36,1-.68,1.52-1a19.81,19.81,0,0,1,4.53-1.95A20.58,20.58,0,0,1,264.07,173.06Z"/><ellipse class="cls-7" cx="155.04" cy="281.25" rx="20.6" ry="19.18"/><path class="cls-8" d="M155,263c10.89,0,19.71,8.19,19.71,18.3s-8.82,18.3-19.71,18.3-19.71-8.2-19.71-18.3S144.15,263,155,263m0-1.77c-11.84,0-21.48,9-21.48,20.07s9.64,20.06,21.48,20.06,21.48-9,21.48-20.06-9.64-20.07-21.48-20.07Z"/><ellipse class="cls-4" cx="155.04" cy="281.25" rx="14.56" ry="13.51"/><ellipse class="cls-5" cx="160.33" cy="275.98" rx="7.28" ry="6.76"/><circle class="cls-3" cx="164.73" cy="15.82" r="11.82"/><rect class="cls-6" x="0.52" y="178.35" width="38.3" height="38.3"/><polygon class="cls-4" points="25.77 197.5 34.36 206.08 28.25 212.19 19.67 203.61 11.09 212.19 4.98 206.08 13.56 197.5 4.98 188.92 11.09 182.81 19.67 191.39 28.25 182.81 34.36 188.92 25.77 197.5"/><path class="cls-3" d="M199,67.86V235.35a9.61,9.61,0,0,1-9.61,9.61H107.46a9.62,9.62,0,0,1-9.62-9.61V67.86a9.62,9.62,0,0,1,9.62-9.61h82A9.61,9.61,0,0,1,199,67.86Z"/><rect class="cls-6" x="91.49" y="58.25" width="101.18" height="186.72" rx="10.49" ry="10.49"/><polygon class="cls-9" points="184.72 214.59 99.47 214.59 99.47 77.01 184.72 77.01 184.72 146.71 184.72 214.59"/><polygon class="cls-10" points="184.72 214.59 99.47 214.59 99.47 77.01 184.72 77.01 184.72 146.71 184.72 214.59"/><circle class="cls-6" cx="142.08" cy="228.32" r="8.19"/><line class="cls-6" x1="132.31" y1="69.1" x2="151.85" y2="69.1"/><path class="cls-3" d="M167.1,196.15c55.71-13.49,41.42-94.88,41.42-94.88L166.31,90.2h-1.66l-42.21,11.07s-14.28,81.39,41.43,94.88Z"/><path class="cls-6" d="M166.86,188.21c47.36-11.46,35.22-80.66,35.22-80.66l-35.89-9.42h-1.41l-35.89,9.42s-12.15,69.2,35.22,80.66Z"/><path class="cls-1" d="M161.33,167h0a7.21,7.21,0,0,1-6.07-3.34l-11.08-17.33a7.23,7.23,0,0,1,12.18-7.78l5,7.86,19.42-30a7.23,7.23,0,0,1,12.14,7.85L167.4,163.71A7.21,7.21,0,0,1,161.33,167Z"/><path class="cls-11" d="M161.33,167h0a7.21,7.21,0,0,1-6.07-3.34l-11.08-17.33a7.23,7.23,0,0,1,12.18-7.78l5,7.86,19.42-30a7.23,7.23,0,0,1,12.14,7.85L167.4,163.71A7.21,7.21,0,0,1,161.33,167Z"/><rect class="cls-4" x="232.43" y="43.75" width="44.88" height="44.88"/><polygon class="cls-3" points="262.03 66.19 272.09 76.24 264.93 83.4 254.87 73.35 244.82 83.4 237.66 76.24 247.72 66.19 237.66 56.13 244.82 48.98 254.87 59.03 264.93 48.98 272.09 56.13 262.03 66.19"/></svg>