<svg id="Layer_1" data-name="Layer 1" xmlns="http://www.w3.org/2000/svg" xmlns:xlink="http://www.w3.org/1999/xlink" viewBox="0 0 300 300"><defs><style>.cls-1,.cls-16{fill:#490260;}.cls-2{fill:#7d4696;}.cls-13,.cls-15,.cls-3,.cls-9{fill:none;}.cls-12,.cls-13,.cls-15,.cls-16,.cls-3,.cls-4,.cls-6,.cls-9{stroke:#490260;}.cls-12,.cls-15,.cls-3{stroke-miterlimit:10;}.cls-16,.cls-3,.cls-4,.cls-6,.cls-7,.cls-9{stroke-width:1.76px;}.cls-10,.cls-4{fill:#00d9b5;}.cls-13,.cls-16,.cls-4,.cls-6,.cls-7,.cls-9{stroke-linecap:round;stroke-linejoin:round;}.cls-5{fill:url(#linear-gradient);}.cls-6{fill:#65318e;}.cls-7{fill:#e9d3e6;stroke:#65318e;}.cls-12,.cls-8{fill:#f0d4fd;}.cls-11{fill:url(#linear-gradient-2);}.cls-12,.cls-13,.cls-15{stroke-width:1.8px;}.cls-14{fill:#fff;}</style><linearGradient id="linear-gradient" x1="-13.25" y1="125.79" x2="84.76" y2="125.79" gradientUnits="userSpaceOnUse"><stop offset="0.08" stop-color="#7d4696"/><stop offset="0.31" stop-color="#7d4696" stop-opacity="0.61"/><stop offset="0.66" stop-color="#7d4696" stop-opacity="0"/></linearGradient><linearGradient id="linear-gradient-2" x1="77.47" y1="125.92" x2="194.43" y2="125.92" gradientUnits="userSpaceOnUse"><stop offset="0.08" stop-color="#7d4696"/><stop offset="0.29" stop-color="#7d4696" stop-opacity="0.61"/><stop offset="0.6" stop-color="#7d4696" stop-opacity="0"/></linearGradient></defs><title>Onboarding II Gradient 300PX</title><path class="cls-1" d="M237.34,224.93H7.26V32.07a8,8,0,0,1,8.05-8l222,.72Z"/><path class="cls-2" d="M252.17,223.82H11V35.55A10.26,10.26,0,0,1,21.25,25.29H243.64a8.53,8.53,0,0,1,8.53,8.53Z"/><path class="cls-3" d="M252.17,223.82H11V35.55A10.26,10.26,0,0,1,21.25,25.29H243.64a8.53,8.53,0,0,1,8.53,8.53Z"/><rect class="cls-4" x="24.68" y="37.77" width="208.72" height="176.05"/><rect class="cls-5" x="24.68" y="37.77" width="208.72" height="176.05"/><rect class="cls-6" x="222.35" y="37.77" width="11.75" height="176.05"/><polygon class="cls-7" points="240.35 224.93 14 224.93 68.09 264.4 294.44 264.4 240.35 224.93"/><polygon class="cls-8" points="242.21 224.93 14 224.93 68.09 264.4 296.3 264.4 242.21 224.93"/><polygon class="cls-9" points="242.21 224.93 14 224.93 68.09 264.4 296.3 264.4 242.21 224.93"/><rect class="cls-2" x="68.1" y="264.4" width="228.21" height="24.13"/><rect class="cls-3" x="68.1" y="264.4" width="228.21" height="24.13"/><polygon class="cls-1" points="7.26 219.88 7.26 242.55 68.09 289.48 68.09 264.4 7.26 219.88"/><rect class="cls-8" y="60.55" width="10.31" height="24.06"/><rect class="cls-9" y="60.55" width="10.31" height="24.06"/><rect class="cls-8" y="161.24" width="13.09" height="24.06"/><rect class="cls-9" y="161.24" width="13.09" height="24.06"/><path class="cls-10" d="M67.21,184.74H11.71V160.68h55.5A8.77,8.77,0,0,1,76,169.45V176A8.76,8.76,0,0,1,67.21,184.74Z"/><path class="cls-9" d="M67.21,184.74H11.71V160.68h55.5A8.77,8.77,0,0,1,76,169.45V176A8.76,8.76,0,0,1,67.21,184.74Z"/><path class="cls-10" d="M67.21,84.47H11.71v-24h55.5A8.76,8.76,0,0,1,76,69.18v6.53A8.76,8.76,0,0,1,67.21,84.47Z"/><path class="cls-9" d="M67.21,84.47H11.71v-24h55.5A8.76,8.76,0,0,1,76,69.18v6.53A8.76,8.76,0,0,1,67.21,84.47Z"/><polygon class="cls-9" points="154.35 213.68 154.35 177.47 122.81 177.47 122.81 123.02 143.3 123.02 143.3 38.77 234.1 38.77 234.1 213.82 154.35 213.68"/><polygon class="cls-11" points="154.35 213.68 154.35 177.47 122.81 177.47 122.81 123.02 143.3 123.02 143.3 38.02 239.76 38.02 239.76 213.82 154.35 213.68"/><path class="cls-12" d="M201.22,166.87l.11,27.27A26.61,26.61,0,0,0,228,220.62h4.69a26.61,26.61,0,0,0,26.48-26.69l-.1-27.28h-1.31l.1,27.27A25.3,25.3,0,0,1,232.7,219.3l-4.68,0a25.3,25.3,0,0,1-25.38-25.18l-.11-27.28Z"/><path class="cls-12" d="M201.33,194.14l-.11-27.27h1.31l0-6.06-7.37,0,.13,33.34"/><path class="cls-1" d="M222.48,63.68l4.69,0a46.13,46.13,0,0,1,46.27,45.91l.33,84.27-13.44,0-.13-33.33-13.43.05-.2-50.94a19.25,19.25,0,0,0-19.29-19.15l-4.69,0a19.24,19.24,0,0,0-19.14,19.3l.2,50.94-13.44.05.13,33.34-13.42.05L176.59,110A46.14,46.14,0,0,1,222.48,63.68Z"/><path class="cls-13" d="M222.48,63.68l4.69,0a46.13,46.13,0,0,1,46.27,45.91l.33,84.27-13.44,0-.13-33.33-13.43.05-.2-50.94a19.25,19.25,0,0,0-19.29-19.15l-4.69,0a19.24,19.24,0,0,0-19.14,19.3l.2,50.94-13.44.05.13,33.34-13.42.05L176.59,110A46.14,46.14,0,0,1,222.48,63.68Z"/><path class="cls-14" d="M227.41,63.68l4.69,0a46.13,46.13,0,0,1,46.26,45.91l.33,84.27-13.43,0-.13-33.33-13.44.05-.2-50.94A19.25,19.25,0,0,0,232.2,90.52l-4.69,0a19.24,19.24,0,0,0-19.14,19.3l.2,50.94-13.43.05.13,33.34-13.42.05L181.52,110A46.13,46.13,0,0,1,227.41,63.68Z"/><path class="cls-13" d="M227.41,63.68l4.69,0a46.13,46.13,0,0,1,46.26,45.91l.33,84.27-13.43,0-.13-33.33-13.44.05-.2-50.94A19.25,19.25,0,0,0,232.2,90.52l-4.69,0a19.24,19.24,0,0,0-19.14,19.3l.2,50.94-13.43.05.13,33.34-13.42.05L181.52,110A46.13,46.13,0,0,1,227.41,63.68Z"/><rect class="cls-2" x="181.36" y="155.29" width="118.5" height="83.44" transform="translate(-0.7 0.86) rotate(-0.2)"/><rect class="cls-15" x="181.36" y="155.29" width="118.5" height="83.44" transform="translate(-0.7 0.86) rotate(-0.2)"/><polygon class="cls-1" points="153.18 155.56 153.49 239.41 182 239.41 181.69 155.49 153.18 155.56"/><polygon class="cls-15" points="153.18 155.56 153.49 239.41 182 239.41 181.69 155.49 153.18 155.56"/><rect class="cls-4" x="164.8" y="111.1" width="62.9" height="27.55" rx="13.77" ry="13.77"/><path class="cls-1" d="M195.78,138.66h-17.2a13.76,13.76,0,0,1-9.73-23.51,13.67,13.67,0,0,1,9.73-4.05h17.2A13.83,13.83,0,0,0,182,124.88,13.83,13.83,0,0,0,195.78,138.66Z"/><path class="cls-9" d="M195.78,138.66h-17.2a13.76,13.76,0,0,1-9.73-23.51,13.67,13.67,0,0,1,9.73-4.05h17.2A13.83,13.83,0,0,0,182,124.88,13.83,13.83,0,0,0,195.78,138.66Z"/><circle class="cls-14" cx="239.44" cy="198.76" r="21.77"/><circle class="cls-9" cx="239.44" cy="198.76" r="21.77"/><circle class="cls-1" cx="239.46" cy="194.39" r="8.2"/><circle class="cls-9" cx="239.46" cy="194.39" r="8.2"/><rect class="cls-16" x="236.8" y="198.16" width="5.32" height="15.79"/><circle class="cls-4" cx="35.64" cy="48.81" r="4.57"/><circle class="cls-4" cx="229.63" cy="48.81" r="4.57"/><circle class="cls-4" cx="35.64" cy="123.02" r="4.57"/><circle class="cls-4" cx="35.64" cy="203.07" r="4.57"/></svg>