<svg id="Layer_1" data-name="Layer 1" xmlns="http://www.w3.org/2000/svg" xmlns:xlink="http://www.w3.org/1999/xlink" viewBox="0 0 300 300"><defs><style>.cls-1{fill:url(#linear-gradient);}.Graphic-Style-8{fill:url(#linear-gradient-2);}.cls-2,.cls-8{fill:#f0d4fd;}.cls-10,.cls-2,.cls-6{stroke:#65318e;}.cls-10,.cls-11,.cls-2,.cls-3,.cls-5,.cls-7,.cls-8,.cls-9{stroke-linecap:round;stroke-linejoin:round;}.cls-10,.cls-11,.cls-2,.cls-3,.cls-5,.cls-6,.cls-7,.cls-8,.cls-9{stroke-width:1.76px;}.cls-3,.cls-6{fill:#fff;}.cls-11,.cls-3,.cls-7,.cls-8,.cls-9{stroke:#490260;}.cls-4{fill:url(#linear-gradient-3);}.cls-10,.cls-5,.cls-9{fill:#65318e;}.cls-5{stroke:#f0d4fd;}.cls-6{stroke-miterlimit:10;}.cls-7{fill:#00d9b5;}.cls-11{fill:#490260;}.cls-12{fill:url(#linear-gradient-4);}</style><linearGradient id="linear-gradient" x1="-96.71" y1="206.18" x2="-95.7" y2="145.02" gradientTransform="translate(327.61 31.9)" gradientUnits="userSpaceOnUse"><stop offset="0.08" stop-color="#7e4696"/><stop offset="0.39" stop-color="#7e4696" stop-opacity="0.61"/><stop offset="0.85" stop-color="#7e4696" stop-opacity="0"/></linearGradient><linearGradient id="linear-gradient-2" x1="73.96" y1="231.36" x2="75.25" y2="152.99" gradientTransform="translate(-14 -2)" gradientUnits="userSpaceOnUse"><stop offset="0.08" stop-color="#00d9b5"/><stop offset="0.3" stop-color="#00d9b5" stop-opacity="0.73"/><stop offset="0.8" stop-color="#00d9b5" stop-opacity="0.07"/><stop offset="0.85" stop-color="#00d9b5" stop-opacity="0"/></linearGradient><linearGradient id="linear-gradient-3" x1="119.75" y1="-30.01" x2="119.75" y2="146.52" gradientUnits="userSpaceOnUse"><stop offset="0.08" stop-color="#00d9b5"/><stop offset="0.12" stop-color="#00d9b5" stop-opacity="0.97"/><stop offset="0.19" stop-color="#00d9b5" stop-opacity="0.89"/><stop offset="0.26" stop-color="#00d9b5" stop-opacity="0.75"/><stop offset="0.35" stop-color="#00d9b5" stop-opacity="0.56"/><stop offset="0.44" stop-color="#00d9b5" stop-opacity="0.32"/><stop offset="0.54" stop-color="#00d9b5" stop-opacity="0.03"/><stop offset="0.54" stop-color="#00d9b5" stop-opacity="0"/></linearGradient><linearGradient id="linear-gradient-4" x1="214.42" y1="44.45" x2="214.42" y2="138.96" gradientUnits="userSpaceOnUse"><stop offset="0.08" stop-color="#f0d4fd"/><stop offset="0.27" stop-color="#f0d4fd" stop-opacity="0.77"/><stop offset="0.7" stop-color="#f0d4fd" stop-opacity="0.2"/><stop offset="0.85" stop-color="#f0d4fd" stop-opacity="0"/></linearGradient></defs><title>Onboarding II Gradient 300PX</title><rect class="cls-1" x="184.27" y="169.04" width="94.22" height="79.61" transform="translate(462.76 417.68) rotate(180)"/><rect class="Graphic-Style-8" x="9.42" y="140.73" width="102.32" height="102.32" transform="translate(121.16 383.78) rotate(180)"/><path class="cls-2" d="M57,27H182.49A5.54,5.54,0,0,1,188,32.51v93.74a0,0,0,0,1,0,0H51.47a0,0,0,0,1,0,0V32.51A5.54,5.54,0,0,1,57,27Z"/><rect class="cls-3" x="59.55" y="34.87" width="120.41" height="108.53"/><rect class="cls-4" x="59.55" y="34.87" width="120.41" height="108.53"/><rect class="cls-2" x="76.5" y="146.83" width="134.33" height="10.38"/><polygon class="cls-5" points="51.47 126.25 51.47 136.54 76.5 157.21 76.5 146.83 51.47 126.25"/><rect class="cls-6" x="59.33" y="59.17" width="43.89" height="37.87"/><path class="cls-7" d="M177.05,196.61H60.43V113a2,2,0,0,1,2-2H175a2,2,0,0,1,2,2Z"/><rect class="cls-8" x="65.88" y="115.57" width="105.71" height="76.37"/><polygon class="cls-9" points="176.06 196.61 60.43 196.61 81.8 214.36 197.44 214.36 176.06 196.61"/><rect class="cls-7" x="81.8" y="214.36" width="115.11" height="8.96"/><polygon class="cls-3" points="60.43 196.61 60.43 203.65 81.8 223.32 81.8 214.36 60.43 196.61"/><path class="cls-7" d="M189.59,209H73V125.29a2.05,2.05,0,0,1,2.05-2H187.54a2.05,2.05,0,0,1,2.05,2Z"/><rect class="cls-8" x="78.42" y="127.91" width="105.71" height="76.37"/><polygon class="cls-9" points="188.73 208.95 72.96 208.95 94.33 226.7 210.1 226.7 188.73 208.95"/><rect class="cls-7" x="94.33" y="226.7" width="115.38" height="8.96"/><polygon class="cls-3" points="72.96 208.95 72.96 215.73 94.33 235.66 94.33 226.7 72.96 208.95"/><path class="cls-7" d="M202.12,221.29H85.5V137.63a2,2,0,0,1,2-2H200.08a2,2,0,0,1,2,2Z"/><rect class="cls-8" x="90.95" y="140.25" width="105.71" height="76.37"/><polygon class="cls-9" points="201.4 221.29 85.5 221.29 106.87 239.04 222.77 239.04 201.4 221.29"/><rect class="cls-7" x="106.87" y="239.04" width="115.64" height="8.96"/><polygon class="cls-3" points="85.5 221.29 85.5 227.8 106.87 248 106.87 239.04 85.5 221.29"/><path class="cls-7" d="M214.66,233.63H98V150a2,2,0,0,1,2-2H212.61a2,2,0,0,1,2,2Z"/><rect class="cls-8" x="103.49" y="152.59" width="105.71" height="76.37"/><polygon class="cls-9" points="214.06 233.63 98.03 233.63 119.4 251.38 235.43 251.38 214.06 233.63"/><rect class="cls-7" x="119.4" y="251.38" width="115.9" height="8.96"/><polygon class="cls-3" points="98.03 233.63 98.03 239.88 119.4 260.34 119.4 251.38 98.03 233.63"/><path class="cls-7" d="M227.19,246H110.57V162.31a2,2,0,0,1,2-2H225.15a2,2,0,0,1,2,2Z"/><rect class="cls-8" x="116.02" y="164.93" width="105.71" height="76.37"/><polygon class="cls-9" points="226.73 245.97 110.57 245.97 131.94 263.72 248.1 263.72 226.73 245.97"/><rect class="cls-7" x="131.94" y="263.72" width="116.16" height="8.96"/><polygon class="cls-3" points="110.57 245.97 110.57 251.96 131.94 271.68 131.94 263.72 110.57 245.97"/><path class="cls-7" d="M244.52,260.67H127.9V177a2,2,0,0,1,2-2H242.48a2,2,0,0,1,2,2Z"/><rect class="cls-8" x="133.36" y="179.64" width="105.71" height="76.37"/><polygon class="cls-9" points="244.06 260.67 127.9 260.67 149.27 278.43 265.43 278.43 244.06 260.67"/><rect class="cls-7" x="149.27" y="278.43" width="116.16" height="8.96"/><rect class="cls-10" x="59.33" y="59.89" width="41.01" height="38.59"/><rect class="cls-10" x="66.24" y="59.89" width="34.1" height="30.04"/><path class="cls-7" d="M149.62,84.81V177H278.49V84.81a6.88,6.88,0,0,0-6.88-6.88H156.5A6.88,6.88,0,0,0,149.62,84.81ZM272.46,168.2H155.65V87.41H272.46Z"/><polygon class="cls-8" points="276.38 176.95 149.62 176.95 173.24 196.57 300 196.57 276.38 176.95"/><rect class="cls-7" x="173.24" y="196.57" width="126.76" height="9.9"/><polygon class="cls-11" points="149.62 176.95 149.62 186.76 173.24 206.47 173.24 196.57 149.62 176.95"/><rect class="cls-6" x="156.37" y="87.41" width="116.09" height="80.79"/><rect class="cls-12" x="156.37" y="87.41" width="116.09" height="80.79"/><rect class="cls-11" x="156.37" y="87.41" width="1.72" height="80.79"/><path class="cls-7" d="M4.78,53.13H118a4.78,4.78,0,0,1,4.78,4.78v87.73a0,0,0,0,1,0,0H0a0,0,0,0,1,0,0V57.9A4.78,4.78,0,0,1,4.78,53.13Z"/><rect class="cls-3" x="8.05" y="60.34" width="106.66" height="76.63"/><polygon class="cls-8" points="120.75 145.63 0 145.63 22.5 164.32 143.24 164.32 120.75 145.63"/><rect class="cls-7" x="22.5" y="164.32" width="120.75" height="9.43"/><polygon class="cls-11" points="0 145.63 0 154.97 22.5 173.75 22.5 164.32 0 145.63"/><rect class="cls-3" x="8.82" y="61.75" width="104.98" height="74.01"/><rect class="cls-3" x="8.82" y="61.75" width="104.98" height="74.01"/><path class="cls-8" d="M57.1,61.75h57.26a0,0,0,0,1,0,0v66.4a0,0,0,0,1,0,0H64.3A7.19,7.19,0,0,1,57.1,121V61.75A0,0,0,0,1,57.1,61.75Z"/><rect class="cls-8" x="68.28" y="61.43" width="46.09" height="53.39"/><path class="cls-11" d="M8.05,136.21V60.34h3.2V133A3.2,3.2,0,0,1,8.05,136.21Z"/><polygon class="cls-3" points="131.94 272.68 149.27 287.39 149.27 278.43 131.94 263.72 131.94 272.68"/></svg>