<svg id="Layer_1" data-name="Layer 1" xmlns="http://www.w3.org/2000/svg" xmlns:xlink="http://www.w3.org/1999/xlink" viewBox="0 0 300 300"><defs><style>.cls-1,.cls-10{fill:#fff;}.cls-1,.cls-12,.cls-13,.cls-3,.cls-4,.cls-5{stroke:#7d4696;}.cls-1,.cls-4,.cls-7,.cls-8{stroke-miterlimit:10;}.cls-1,.cls-11,.cls-12,.cls-13,.cls-2,.cls-3,.cls-4,.cls-5,.cls-7,.cls-8,.cls-9{stroke-width:1.78px;}.cls-13,.cls-2,.cls-4,.cls-7,.cls-8{fill:none;}.cls-11,.cls-2,.cls-9{stroke:#490260;}.cls-11,.cls-12,.cls-13,.cls-2,.cls-3,.cls-5,.cls-9{stroke-linecap:round;stroke-linejoin:round;}.cls-3,.cls-6{fill:#00d9b5;}.cls-11,.cls-5{fill:#f0d4fd;}.cls-7{stroke:#f0d4fd;}.cls-8{stroke:#00d9b5;}.cls-12,.cls-9{fill:#7d4696;}.cls-14{fill:url(#radial-gradient);}</style><radialGradient id="radial-gradient" cx="153.88" cy="151.52" r="90.62" gradientUnits="userSpaceOnUse"><stop offset="0.18" stop-color="#7d4696" stop-opacity="0"/><stop offset="0.39" stop-color="#7b4494" stop-opacity="0.03"/><stop offset="0.55" stop-color="#763d8f" stop-opacity="0.13"/><stop offset="0.69" stop-color="#6e3286" stop-opacity="0.3"/><stop offset="0.82" stop-color="#612279" stop-opacity="0.53"/><stop offset="0.94" stop-color="#520d69" stop-opacity="0.83"/><stop offset="1" stop-color="#490260"/></radialGradient></defs><title>Onboarding II Gradient 300PX</title><circle class="cls-1" cx="204.65" cy="23.79" r="7.54"/><line class="cls-2" x1="152.81" y1="28.68" x2="152.81" y2="300.35"/><line class="cls-3" x1="294.12" y1="147.93" x2="12.57" y2="147.93"/><line class="cls-4" x1="247.66" y1="53.08" x2="57.95" y2="242.79"/><line class="cls-5" x1="247.66" y1="242.79" x2="57.95" y2="53.08"/><line class="cls-6" x1="276.95" y1="97.11" x2="28.66" y2="198.76"/><line class="cls-2" x1="276.95" y1="97.11" x2="28.66" y2="198.76"/><line class="cls-4" x1="101.98" y1="23.79" x2="203.63" y2="272.07"/><line class="cls-7" x1="29.09" y1="96.09" x2="276.52" y2="199.78"/><line class="cls-4" x1="100.96" y1="271.65" x2="204.65" y2="24.21"/><line class="cls-4" x1="129.67" y1="37.53" x2="175.94" y2="258.34"/><line class="cls-8" x1="263.21" y1="124.8" x2="42.4" y2="171.07"/><line class="cls-4" x1="214.51" y1="53.5" x2="91.1" y2="242.36"/><line class="cls-4" x1="247.23" y1="209.64" x2="58.38" y2="86.22"/><line class="cls-4" x1="246.21" y1="84.69" x2="59.4" y2="211.17"/><line class="cls-8" x1="89.56" y1="54.52" x2="216.05" y2="241.34"/><line class="cls-4" x1="42.04" y1="126.6" x2="263.57" y2="169.26"/><line class="cls-8" x1="131.47" y1="258.7" x2="174.14" y2="37.16"/><circle class="cls-9" cx="153.88" cy="151.52" r="90.62"/><circle class="cls-5" cx="153.88" cy="151.52" r="83.34"/><circle class="cls-5" cx="153.88" cy="151.52" r="74.23"/><circle class="cls-5" cx="153.88" cy="151.52" r="61.35"/><circle class="cls-5" cx="153.88" cy="151.52" r="48.47"/><circle class="cls-5" cx="153.88" cy="151.52" r="35.59"/><circle class="cls-10" cx="153.88" cy="151.52" r="22.31"/><circle class="cls-3" cx="8.58" cy="148.87" r="7.58"/><circle class="cls-11" cx="249.76" cy="242.79" r="10.67"/><circle class="cls-1" cx="291.14" cy="147.93" r="9.86"/><circle class="cls-12" cx="291.14" cy="147.93" r="3.8"/><ellipse class="cls-1" cx="152.81" cy="288.64" rx="13.31" ry="12.27"/><ellipse class="cls-1" cx="152.81" cy="288.64" rx="5.19" ry="4.78"/><circle class="cls-3" cx="152.81" cy="14.99" r="8.67"/><circle class="cls-13" cx="152.81" cy="14.99" r="13.57"/><circle class="cls-12" cx="60.12" cy="209.48" r="3.8"/><circle class="cls-14" cx="153.88" cy="151.52" r="90.62"/></svg>